<svg xmlns="http://www.w3.org/2000/svg" xmlns:xlink="http://www.w3.org/1999/xlink" contentStyleType="text/css" data-diagram-type="DESCRIPTION" height="922px" preserveAspectRatio="none" style="width:808px;height:922px;background:#FFFFFF;" version="1.1" viewBox="0 0 808 922" width="808px" zoomAndPan="magnify"><title>RaidManager v1 - Use-case overview</title><defs/><g><text fill="#000000" font-family="Arial" font-size="14" font-weight="bold" lengthAdjust="spacing" textLength="245.1162" x="277.9419" y="23.3608">RaidManager v1 - Use-case overview</text><!--cluster RaidManager v1--><g class="cluster" data-entity="RaidManager v1" data-source-line="21" data-uid="ent0010" id="cluster_RaidManager v1"><rect fill="none" height="875" rx="2.5" ry="2.5" style="stroke:#181818;stroke-width:1;" width="291" x="373" y="41.0986"/><text fill="#000000" font-family="Arial" font-size="14" font-weight="bold" lengthAdjust="spacing" textLength="107.3721" x="464.814" y="56.4595">RaidManager v1</text></g><!--entity Player--><g class="entity" data-entity="Player" data-source-line="13" data-uid="ent0002" id="entity_Player"><ellipse cx="324.8413" cy="274.5986" fill="#FCE5CD" rx="8" ry="8" style="stroke:#B45F06;stroke-width:0.5;"/><path d="M324.8413,282.5986 L324.8413,309.5986 M311.8413,290.5986 L337.8413,290.5986 M324.8413,309.5986 L311.8413,324.5986 M324.8413,309.5986 L337.8413,324.5986" fill="none" style="stroke:#B45F06;stroke-width:0.5;"/><text fill="#000000" font-family="Arial" font-size="14" lengthAdjust="spacing" textLength="39.6826" x="305" y="339.4595">Player</text></g><!--entity Officer--><g class="entity" data-entity="Officer" data-source-line="14" data-uid="ent0003" id="entity_Officer"><ellipse cx="233.4033" cy="633.5986" fill="#FCE5CD" rx="8" ry="8" style="stroke:#B45F06;stroke-width:0.5;"/><path d="M233.4033,641.5986 L233.4033,668.5986 M220.4033,649.5986 L246.4033,649.5986 M233.4033,668.5986 L220.4033,683.5986 M233.4033,668.5986 L246.4033,683.5986" fill="none" style="stroke:#B45F06;stroke-width:0.5;"/><text fill="#000000" font-family="Arial" font-size="14" lengthAdjust="spacing" textLength="70.8066" x="198" y="698.4595">Raid officer</text></g><!--entity Admin--><g class="entity" data-entity="Admin" data-source-line="15" data-uid="ent0004" id="entity_Admin"><ellipse cx="83.7998" cy="734.5986" fill="#FCE5CD" rx="8" ry="8" style="stroke:#B45F06;stroke-width:0.5;"/><path d="M83.7998,742.5986 L83.7998,769.5986 M70.7998,750.5986 L96.7998,750.5986 M83.7998,769.5986 L70.7998,784.5986 M83.7998,769.5986 L96.7998,784.5986" fill="none" style="stroke:#B45F06;stroke-width:0.5;"/><text fill="#000000" font-family="Arial" font-size="14" lengthAdjust="spacing" textLength="155.5996" x="6" y="799.4595">Community administrator</text></g><!--entity Discord--><g class="entity" data-entity="Discord" data-source-line="16" data-uid="ent0005" id="entity_Discord"><ellipse cx="747.1895" cy="87.6973" fill="#FCE5CD" rx="8" ry="8" style="stroke:#B45F06;stroke-width:0.5;"/><path d="M747.1895,95.6973 L747.1895,122.6973 M734.1895,103.6973 L760.1895,103.6973 M747.1895,122.6973 L734.1895,137.6973 M747.1895,122.6973 L760.1895,137.6973" fill="none" style="stroke:#B45F06;stroke-width:0.5;"/><text fill="#000000" font-family="Arial" font-size="14" lengthAdjust="spacing" textLength="47.4551" x="723.4619" y="152.5581">Discord</text><text fill="#000000" font-family="Arial" font-size="14" font-style="italic" lengthAdjust="spacing" textLength="65.3789" x="714.5" y="76.4595">&#171;external&#187;</text></g><!--entity WoW--><g class="entity" data-entity="WoW" data-source-line="17" data-uid="ent0006" id="entity_WoW"><ellipse cx="746.8931" cy="212.6973" fill="#FCE5CD" rx="8" ry="8" style="stroke:#B45F06;stroke-width:0.5;"/><path d="M746.8931,220.6973 L746.8931,247.6973 M733.8931,228.6973 L759.8931,228.6973 M746.8931,247.6973 L733.8931,262.6973 M746.8931,247.6973 L759.8931,262.6973" fill="none" style="stroke:#B45F06;stroke-width:0.5;"/><text fill="#000000" font-family="Arial" font-size="14" lengthAdjust="spacing" textLength="70.7861" x="711.5" y="277.5581">WoW client</text><text fill="#000000" font-family="Arial" font-size="14" font-style="italic" lengthAdjust="spacing" textLength="65.3789" x="714.2036" y="201.4595">&#171;external&#187;</text></g><!--entity Armory--><g class="entity" data-entity="Armory" data-source-line="18" data-uid="ent0007" id="entity_Armory"><ellipse cx="746.8413" cy="426.6973" fill="#FCE5CD" rx="8" ry="8" style="stroke:#B45F06;stroke-width:0.5;"/><path d="M746.8413,434.6973 L746.8413,461.6973 M733.8413,442.6973 L759.8413,442.6973 M746.8413,461.6973 L733.8413,476.6973 M746.8413,461.6973 L759.8413,476.6973" fill="none" style="stroke:#B45F06;stroke-width:0.5;"/><text fill="#000000" font-family="Arial" font-size="14" lengthAdjust="spacing" textLength="109.6826" x="692" y="491.5581">Warmane Armory</text><text fill="#000000" font-family="Arial" font-size="14" font-style="italic" lengthAdjust="spacing" textLength="65.3789" x="714.1519" y="415.4595">&#171;external&#187;</text></g><g class="entity" data-entity="Access" data-source-line="22" data-uid="ent0011" id="entity_Access"><ellipse cx="518.258" cy="93.8655" fill="#CFE2F3" rx="102.258" ry="25.7669" style="stroke:#2C5AA0;stroke-width:0.5;"/><text fill="#000000" font-family="Arial" font-size="14" lengthAdjust="spacing" textLength="128.3721" x="454.072" y="89.1277">Access a community</text><text fill="#000000" font-family="Arial" font-size="14" lengthAdjust="spacing" textLength="40.4551" x="498.0305" y="105.2264">UC-01</text></g><g class="entity" data-entity="Connect" data-source-line="23" data-uid="ent0012" id="entity_Connect"><ellipse cx="518.3883" cy="233.8655" fill="#CFE2F3" rx="97.8883" ry="25.7669" style="stroke:#2C5AA0;stroke-width:0.5;"/><text fill="#000000" font-family="Arial" font-size="14" lengthAdjust="spacing" textLength="122.1924" x="457.2922" y="229.1277">Connect game data</text><text fill="#000000" font-family="Arial" font-size="14" lengthAdjust="spacing" textLength="40.4551" x="498.1608" y="245.2264">UC-02</text></g><g class="entity" data-entity="Characters" data-source-line="24" data-uid="ent0013" id="entity_Characters"><ellipse cx="518.3452" cy="447.9677" fill="#CFE2F3" rx="137.3452" ry="29.869" style="stroke:#2C5AA0;stroke-width:0.5;"/><text fill="#000000" font-family="Arial" font-size="14" lengthAdjust="spacing" textLength="203.123" x="416.7837" y="443.2299">Approve and manage characters</text><text fill="#000000" font-family="Arial" font-size="14" lengthAdjust="spacing" textLength="40.4551" x="498.1177" y="459.3285">UC-03</text></g><g class="entity" data-entity="Ready" data-source-line="25" data-uid="ent0014" id="entity_Ready"><ellipse cx="518.3477" cy="303.8685" fill="#CFE2F3" rx="108.3477" ry="25.7699" style="stroke:#2C5AA0;stroke-width:0.5;"/><text fill="#000000" font-family="Arial" font-size="14" lengthAdjust="spacing" textLength="136.9648" x="448.6671" y="299.3897">Inspect raid readiness</text><text fill="#000000" font-family="Arial" font-size="14" lengthAdjust="spacing" textLength="40.4551" x="496.922" y="315.4883">UC-04</text></g><g class="entity" data-entity="Signup" data-source-line="26" data-uid="ent0015" id="entity_Signup"><ellipse cx="518.6323" cy="373.8655" fill="#CFE2F3" rx="89.6323" ry="25.7669" style="stroke:#2C5AA0;stroke-width:0.5;"/><text fill="#000000" font-family="Arial" font-size="14" lengthAdjust="spacing" textLength="110.5166" x="463.374" y="369.1277">Respond to a raid</text><text fill="#000000" font-family="Arial" font-size="14" lengthAdjust="spacing" textLength="40.4551" x="498.4048" y="385.2264">UC-05</text></g><g class="entity" data-entity="Updates" data-source-line="27" data-uid="ent0016" id="entity_Updates"><ellipse cx="518.3276" cy="163.8655" fill="#CFE2F3" rx="97.3276" ry="25.7669" style="stroke:#2C5AA0;stroke-width:0.5;"/><text fill="#000000" font-family="Arial" font-size="14" lengthAdjust="spacing" textLength="121.3994" x="457.6279" y="159.1277">Follow raid updates</text><text fill="#000000" font-family="Arial" font-size="14" lengthAdjust="spacing" textLength="40.4551" x="498.1001" y="175.2264">UC-06</text></g><g class="entity" data-entity="Schedule" data-source-line="28" data-uid="ent0017" id="entity_Schedule"><ellipse cx="518.4728" cy="521.8655" fill="#CFE2F3" rx="76.9728" ry="25.7669" style="stroke:#2C5AA0;stroke-width:0.5;"/><text fill="#000000" font-family="Arial" font-size="14" lengthAdjust="spacing" textLength="92.6133" x="472.1661" y="517.1277">Schedule raids</text><text fill="#000000" font-family="Arial" font-size="14" lengthAdjust="spacing" textLength="40.4551" x="498.2452" y="533.2264">UC-07</text></g><g class="entity" data-entity="Compose" data-source-line="29" data-uid="ent0018" id="entity_Compose"><ellipse cx="518.5214" cy="591.8655" fill="#CFE2F3" rx="94.0214" ry="25.7669" style="stroke:#2C5AA0;stroke-width:0.5;"/><text fill="#000000" font-family="Arial" font-size="14" lengthAdjust="spacing" textLength="116.7236" x="460.1595" y="587.1277">Build compositions</text><text fill="#000000" font-family="Arial" font-size="14" lengthAdjust="spacing" textLength="40.4551" x="498.2938" y="603.2264">UC-08</text></g><g class="entity" data-entity="Publish" data-source-line="30" data-uid="ent0019" id="entity_Publish"><ellipse cx="518.7006" cy="663.2388" fill="#CFE2F3" rx="121.2006" ry="26.6401" style="stroke:#2C5AA0;stroke-width:0.5;"/><text fill="#000000" font-family="Arial" font-size="14" lengthAdjust="spacing" textLength="161.0752" x="436.8911" y="658.7745">Publish and revise rosters</text><text fill="#000000" font-family="Arial" font-size="14" lengthAdjust="spacing" textLength="40.4551" x="497.2011" y="674.8731">UC-09</text></g><g class="entity" data-entity="Run" data-source-line="31" data-uid="ent0020" id="entity_Run"><ellipse cx="518.6203" cy="733.8655" fill="#CFE2F3" rx="73.1203" ry="25.7669" style="stroke:#2C5AA0;stroke-width:0.5;"/><text fill="#000000" font-family="Arial" font-size="14" lengthAdjust="spacing" textLength="87.165" x="475.0378" y="729.1277">Run raid night</text><text fill="#000000" font-family="Arial" font-size="14" lengthAdjust="spacing" textLength="40.4551" x="498.3927" y="745.2264">UC-10</text></g><g class="entity" data-entity="History" data-source-line="32" data-uid="ent0021" id="entity_History"><ellipse cx="518.6842" cy="803.8655" fill="#CFE2F3" rx="95.6842" ry="25.7669" style="stroke:#2C5AA0;stroke-width:0.5;"/><text fill="#000000" font-family="Arial" font-size="14" lengthAdjust="spacing" textLength="119.0752" x="459.1466" y="799.1277">Review attendance</text><text fill="#000000" font-family="Arial" font-size="14" lengthAdjust="spacing" textLength="40.4551" x="498.4566" y="815.2264">UC-11</text></g><g class="entity" data-entity="Permissions" data-source-line="33" data-uid="ent0022" id="entity_Permissions"><ellipse cx="518.3948" cy="878.2776" fill="#CFE2F3" rx="136.3948" ry="29.679" style="stroke:#2C5AA0;stroke-width:0.5;"/><text fill="#000000" font-family="Arial" font-size="14" lengthAdjust="spacing" textLength="200.7441" x="418.0227" y="873.5398">Manage community permissions</text><text fill="#000000" font-family="Arial" font-size="14" lengthAdjust="spacing" textLength="40.4551" x="498.1672" y="889.6384">UC-12</text></g><g class="link" data-entity-1="Officer" data-entity-2="Player" data-uid="lnk8" id="link_Officer_Player"><polygon fill="none" points="314.4693,342.3279,304.2933,358.3419,315.9369,361.2447,314.4693,342.3279" style="stroke:#181818;stroke-width:1;"/><path d="M243.9933,625.0192 C261.1788,556.0854 292.9023,428.8368 310.1151,359.7933" fill="none" style="stroke:#181818;stroke-width:1;"/></g><g class="link" data-entity-1="Admin" data-entity-2="Officer" data-uid="lnk9" id="link_Admin_Officer"><polygon fill="none" points="197.6176,686.9842,179.3758,692.2034,186.1556,702.1046,197.6176,686.9842" style="stroke:#181818;stroke-width:1;"/><path d="M140.7634,725.9149 C159.8534,712.8431 165.8038,708.7686 182.7657,697.154" fill="none" style="stroke:#181818;stroke-width:1;"/></g><g class="link" data-entity-1="Player" data-entity-2="Access" data-uid="lnk23" id="link_Player_Access"><path d="M325.5695,265.7697 C327.2776,226.0618 336.2955,164.906 373,129.0986 C384.9173,117.4726 400.0023,109.4832 415.9022,104.036" fill="none" style="stroke:#181818;stroke-width:1;"/></g><g class="link" data-entity-1="Player" data-entity-2="Connect" data-uid="lnk24" id="link_Player_Connect"><path d="M345.4442,286.8509 C353.5019,280.4692 363.2379,273.6809 373,269.0986 C387.8375,262.134 404.2049,256.4711 420.4303,251.8925" fill="none" style="stroke:#181818;stroke-width:1;"/></g><g class="link" data-entity-1="Player" data-entity-2="Characters" data-uid="lnk25" id="link_Player_Characters"><path d="M334.3652,342.3447 C341.1725,364.8049 353.0277,392.0438 373,409.0986 C376.7544,412.3047 380.7476,415.2496 384.9232,417.9546" fill="none" style="stroke:#181818;stroke-width:1;"/></g><g class="link" data-entity-1="Player" data-entity-2="Ready" data-uid="lnk26" id="link_Player_Ready"><path d="M345.0619,304.0986 C360.8609,304.0986 384.6989,304.0986 409.6508,304.0986" fill="none" style="stroke:#181818;stroke-width:1;"/></g><g class="link" data-entity-1="Player" data-entity-2="Signup" data-uid="lnk27" id="link_Player_Signup"><path d="M345.4442,321.3463 C353.5019,327.7281 363.2379,334.5164 373,339.0986 C390.4078,347.2697 409.9214,353.6491 428.8409,358.5876" fill="none" style="stroke:#181818;stroke-width:1;"/></g><g class="link" data-entity-1="Player" data-entity-2="Updates" data-uid="lnk28" id="link_Player_Updates"><path d="M334.1324,265.9243 C340.8687,243.346 352.7311,215.9565 373,199.0986 C386.6933,187.7098 403.5025,179.9176 420.7532,174.6106" fill="none" style="stroke:#181818;stroke-width:1;"/></g><g class="link" data-entity-1="Officer" data-entity-2="Schedule" data-uid="lnk29" id="link_Officer_Schedule"><path d="M269.0717,630.0289 C295.5593,606.4272 334.0625,575.6892 373,557.0986 C394.197,546.9782 418.583,539.6302 441.2124,534.3624" fill="none" style="stroke:#181818;stroke-width:1;"/></g><g class="link" data-entity-1="Officer" data-entity-2="Compose" data-uid="lnk30" id="link_Officer_Compose"><path d="M269.2124,654.2922 C297.2204,647.1949 337.6387,636.9715 373,628.0986 C389.5503,623.9458 407.1714,619.5415 424.2111,615.2913" fill="none" style="stroke:#181818;stroke-width:1;"/></g><g class="link" data-entity-1="Officer" data-entity-2="Publish" data-uid="lnk31" id="link_Officer_Publish"><path d="M269.2014,663.0986 C301.3035,663.0986 350.9391,663.0986 397.4184,663.0986" fill="none" style="stroke:#181818;stroke-width:1;"/></g><g class="link" data-entity-1="Officer" data-entity-2="Run" data-uid="lnk32" id="link_Officer_Run"><path d="M269.1796,672.2838 C297.169,679.6558 337.5783,690.2059 373,699.0986 C396.5332,705.0067 422.2666,711.295 445.4116,716.8877" fill="none" style="stroke:#181818;stroke-width:1;"/></g><g class="link" data-entity-1="Officer" data-entity-2="History" data-uid="lnk33" id="link_Officer_History"><path d="M269.0717,696.1684 C295.5593,719.77 334.0625,750.508 373,769.0986 C388.4901,776.4944 405.6833,782.4095 422.6494,787.1142" fill="none" style="stroke:#181818;stroke-width:1;"/></g><g class="link" data-entity-1="Admin" data-entity-2="Permissions" data-uid="lnk34" id="link_Admin_Permissions"><path d="M162.3223,784.4795 C229.9904,802.3158 329.1317,828.4478 405.4855,848.5734" fill="none" style="stroke:#181818;stroke-width:1;"/></g><g class="link" data-entity-1="Access" data-entity-2="Discord" data-uid="lnk35" id="link_Access_Discord"><path d="M621.1555,100.8308 C654.4374,103.0349 689.0691,105.3284 713.3903,106.9391" fill="none" style="stroke:#181818;stroke-width:1;"/></g><g class="link" data-entity-1="Updates" data-entity-2="Discord" data-uid="lnk36" id="link_Updates_Discord"><path d="M616.2758,140.6807 C632.2212,136.8157 648.5746,132.8479 664,129.0986 C680.2323,125.1532 698.2686,120.7556 713.2833,117.091" fill="none" style="stroke:#181818;stroke-width:1;"/></g><g class="link" data-entity-1="Connect" data-entity-2="WoW" data-uid="lnk37" id="link_Connect_WoW"><path d="M616.5421,234.0986 C650.2818,234.0986 685.9812,234.0986 711.3264,234.0986" fill="none" style="stroke:#181818;stroke-width:1;"/></g><g class="link" data-entity-1="Characters" data-entity-2="Armory" data-uid="lnk38" id="link_Characters_Armory"><path d="M656.1559,448.0986 C668.6752,448.0986 680.7954,448.0986 691.8679,448.0986" fill="none" style="stroke:#181818;stroke-width:1;"/></g><!--SRC=[RLHDJnin4BtlhvYcvqW426qbX0IfK7kWHKI8Io-3FRknyDehsviq_VZlzMVMATpMRzuRpyppxBl1ODSZIDphqO7joQ72HbBhm6amejiuuC8GSqAhnhu8DQ317fwHlNH6ZugljDG6TXlXg8fpQd6KxbOhzmrxWciZKBuTNujV18lpAcWtoFLEg0vQbBPEE_XhiQErsqk2K1MgJjQ4qH93IpV_bVUUjNJQdhr1r8QJoQHJjaGygKZ8d3QlShMCbeo_ejMPdi-NxSb5uuJpTJwWu7T-h1qPs2vW3e-Mvk5oq5ioMq6x9cQ0Usy3cNoO1HdejXMCp0pGmlVqNU8htVUZ4cuFo7kXX7K6VI1IhmEIYP-5PRuskBoaduwCGdbrLN8ywITWKf1oKHQERzBGzAY2Yxqs-tH3_3ncvm9XFlzpLPg9bIIar7_mBVKuZMO6lniepi3icZ6o5X1OwVI7UbpDJnQfW1Yj-Ikjb4yDNNXm71qc-ccav-1H_c4mtW50nQ6FHG3RU4EPRyWcxLdI7j1Q_bNP8LndWa-6a0lb2qgwywXxyE2-bZoG7RI_pQyMHbrYBoDxBJer3ZNzLakfT-c2SV0TKKv_4GMF2QeLQxOXFeRTy9fC_f2ovqZDlXc5v66wWxOYB7XMVCmJ2_YHu7vybi9kuiGCRON7ZBRJk3v5OMOTDJwgr8OAVvH8Nfoa6OtgU49X7m2T8yLHCKhSPFaN_yRzewlvTzctmouCP7fXxQ6PHRB_VeARlqrwc_vLbbSq0UMTLCZa_WGcQwTpDcy2YZdJJamML5WPSWMLyLLG659rB7CektNKNTuQZ-R5Rt8fDLHMnKD-vvkfnJYJkDh_0000]--></g></svg>